<?xml version="1.0" standalone="no"?>
<!DOCTYPE svg PUBLIC "-//W3C//DTD SVG 20010904//EN"
 "http://www.w3.org/TR/2001/REC-SVG-20010904/DTD/svg10.dtd">
<svg version="1.0" xmlns="http://www.w3.org/2000/svg"
 width="512.000000pt" height="512.000000pt" viewBox="0 0 512.000000 512.000000"
 preserveAspectRatio="xMidYMid meet">
<metadata>
Created by potrace 1.14, written by Peter Selinger 2001-2017
</metadata>
<g transform="translate(0.000000,512.000000) scale(0.100000,-0.100000)"
fill="#000000" stroke="none">
<path d="M0 2560 l0 -2560 2560 0 2560 0 0 2560 0 2560 -2560 0 -2560 0 0
-2560z m1810 1425 l0 -675 -675 0 -675 0 0 512 0 513 162 162 163 163 512 0
513 0 0 -675z m1420 158 l0 -518 -157 -157 -158 -158 -355 0 -355 0 -157 157
-158 158 0 517 0 518 670 0 670 0 0 -517z m1430 -158 l0 -675 -512 0 -513 0
-162 162 -163 163 0 512 0 513 675 0 675 0 0 -675z m-2850 -1267 l0 -513 -157
-157 -158 -158 -517 0 -518 0 0 670 0 670 675 0 675 0 0 -512z m2850 -158 l0
-670 -517 0 -518 0 -157 157 -158 158 0 355 0 355 157 157 158 158 517 0 518
0 0 -670z m-2012 171 c67 -34 102 -93 102 -171 0 -111 -79 -190 -190 -190
-111 0 -190 79 -190 190 0 111 77 189 188 190 33 0 67 -7 90 -19z m-1000
-1084 l162 -162 0 -350 0 -350 -162 -162 -163 -163 -512 0 -513 0 0 675 0 675
513 0 512 0 163 -163z m1424 6 l158 -158 0 -517 0 -518 -670 0 -670 0 0 517 0
518 157 157 158 158 355 0 355 0 157 -157z m1426 -6 l162 -162 0 -513 0 -512
-675 0 -675 0 0 675 0 675 513 0 512 0 163 -163z"/>
</g>
</svg>
