<svg id="WPE-LOGO-S-Inverse" xmlns="http://www.w3.org/2000/svg" width="112.992" height="151.475" viewBox="0 0 112.992 151.475">
  <defs>
    <style>
      .cls-1 {
        fill: #0ecad4;
      }

      .cls-2 {
        fill: #fff;
      }
    </style>
  </defs>
  <g id="logomark">
    <path id="Path_82" data-name="Path 82" class="cls-1" d="M259.4,423.609h34.729v-26.42l-8.307-8.308H267.705l-8.3,8.306Z" transform="translate(-222.718 -315.513)"/>
    <path id="Path_83" data-name="Path 83" class="cls-1" d="M365.182,291.4l-8.309,8.309v18.115l8.309,8.306H391.6V291.4Z" transform="translate(-283.51 -254.716)"/>
    <path id="Path_84" data-name="Path 84" class="cls-1" d="M294.131,193.92H259.4v26.424l8.306,8.306h18.115l8.308-8.306Z" transform="translate(-222.718 -193.92)"/>
    <path id="Path_85" data-name="Path 85" class="cls-1" d="M391.6,423.609v-26.42L383.3,388.88H356.876v34.728Z" transform="translate(-283.511 -315.513)"/>
    <path id="Path_86" data-name="Path 86" class="cls-1" d="M170.226,193.922l-8.306,8.309V228.65h34.729V193.922Z" transform="translate(-161.921 -193.921)"/>
    <path id="Path_87" data-name="Path 87" class="cls-1" d="M356.876,193.92v26.424l8.309,8.306H391.6V193.92Z" transform="translate(-283.511 -193.92)"/>
    <path id="Path_88" data-name="Path 88" class="cls-1" d="M297.292,334.276a4.975,4.975,0,1,1,4.975-4.975,4.975,4.975,0,0,1-4.975,4.975" transform="translate(-243.245 -275.253)"/>
    <path id="Path_89" data-name="Path 89" class="cls-1" d="M196.65,291.4H161.921v34.73h26.421l8.308-8.306Z" transform="translate(-161.921 -254.716)"/>
    <path id="Path_90" data-name="Path 90" class="cls-1" d="M196.65,397.184l-8.308-8.308H161.921v34.73h26.421l8.308-8.3Z" transform="translate(-161.921 -315.511)"/>
  </g>
  <g id="logotext" transform="translate(0.13 126.614)">
    <path id="Path_91" data-name="Path 91" class="cls-2" d="M174.262,558.951a.256.256,0,0,1-.276-.212l-2.266-8.051h-.043l-2.288,8.051a.255.255,0,0,1-.275.212h-2.648a.255.255,0,0,1-.275-.212l-3.919-13.983c-.022-.127.022-.212.169-.212h3.475a.245.245,0,0,1,.275.212l1.864,8.39h.042l2.246-8.39a.255.255,0,0,1,.275-.212H172.8a.255.255,0,0,1,.276.212l2.309,8.39h.043l1.8-8.39a.237.237,0,0,1,.254-.212h3.475a.145.145,0,0,1,.149.212l-3.9,13.983a.263.263,0,0,1-.3.212Z" transform="translate(-162.266 -539.212)"/>
    <path id="Path_92" data-name="Path 92" class="cls-2" d="M219.519,558.951a.2.2,0,0,1-.212-.212V544.756a.2.2,0,0,1,.212-.212h5.763c3.517,0,5.339,1.992,5.339,4.788,0,2.755-1.844,4.809-5.339,4.809h-2.119a.112.112,0,0,0-.127.128v4.469a.2.2,0,0,1-.212.212Zm7.372-9.619a1.594,1.594,0,0,0-1.822-1.631h-1.907a.112.112,0,0,0-.127.127v3.03a.112.112,0,0,0,.127.127h1.907a1.608,1.608,0,0,0,1.822-1.652" transform="translate(-197.842 -539.212)"/>
    <path id="Path_93" data-name="Path 93" class="cls-2" d="M261.936,555.888a16.4,16.4,0,0,1,0-7.2,5.075,5.075,0,0,1,9.6,0,10.118,10.118,0,0,1,.4,3.371.279.279,0,0,1-.314.286h-9.058c-.115,0-.172.086-.172.2a9.831,9.831,0,0,0,.343,3.058,4.043,4.043,0,0,0,4.173,2.972,4.865,4.865,0,0,0,4.086-1.972.26.26,0,0,1,.4-.057l.171.143a.254.254,0,0,1,.029.4,5.529,5.529,0,0,1-4.686,2.286,4.767,4.767,0,0,1-4.973-3.487m8.973-4.343a.151.151,0,0,0,.171-.171,7.936,7.936,0,0,0-.314-2.372,4.229,4.229,0,0,0-8.058,0,7.934,7.934,0,0,0-.315,2.372.151.151,0,0,0,.172.171Z" transform="translate(-224.179 -539.658)"/>
    <path id="Path_94" data-name="Path 94" class="cls-2" d="M307.924,559.089a.27.27,0,0,1-.286-.285v-8.116c0-3.2-1.314-4.63-3.972-4.63a3.989,3.989,0,0,0-4.143,4.2V558.8a.27.27,0,0,1-.286.285h-.286a.27.27,0,0,1-.286-.285V545.83a.27.27,0,0,1,.286-.285h.286a.27.27,0,0,1,.286.285v1.914h.029a4.311,4.311,0,0,1,4.172-2.485c3.058,0,4.772,1.743,4.772,5.229V558.8a.269.269,0,0,1-.285.285Z" transform="translate(-247.336 -539.658)"/>
    <path id="Path_95" data-name="Path 95" class="cls-2" d="M334.507,562.575a.275.275,0,0,1,.057-.4l.228-.143a.285.285,0,0,1,.4.086,4.318,4.318,0,0,0,3.6,1.6c2.572,0,4.229-1.257,4.229-4.6v-2.286h-.028a4.1,4.1,0,0,1-4.229,2.543,4.406,4.406,0,0,1-4.486-3.229,16.265,16.265,0,0,1,0-7.659,4.407,4.407,0,0,1,4.486-3.228,4.1,4.1,0,0,1,4.229,2.543h.028V545.83a.27.27,0,0,1,.286-.286h.285a.27.27,0,0,1,.286.286v13.288c0,3.743-2.028,5.4-5.086,5.4a5.122,5.122,0,0,1-4.286-1.944m8.144-6.715a17.069,17.069,0,0,0,0-7.087,3.984,3.984,0,0,0-7.544-.028,15.081,15.081,0,0,0,0,7.143,3.984,3.984,0,0,0,7.544-.028" transform="translate(-269.262 -539.658)"/>
    <path id="Path_96" data-name="Path 96" class="cls-2" d="M372.451,532.09a.27.27,0,0,1-.285-.286v-1.143a.27.27,0,0,1,.285-.286h.686a.27.27,0,0,1,.286.286V531.8a.27.27,0,0,1-.286.286Zm.2,17.716a.27.27,0,0,1-.286-.285V536.547a.27.27,0,0,1,.286-.285h.286a.27.27,0,0,1,.286.285v12.974a.27.27,0,0,1-.286.285Z" transform="translate(-293.177 -530.375)"/>
    <path id="Path_97" data-name="Path 97" class="cls-2" d="M396.382,559.089a.27.27,0,0,1-.286-.285v-8.116c0-3.2-1.314-4.63-3.972-4.63a3.989,3.989,0,0,0-4.143,4.2V558.8a.27.27,0,0,1-.286.285h-.286a.27.27,0,0,1-.286-.285V545.83a.27.27,0,0,1,.286-.285h.286a.27.27,0,0,1,.286.285v1.914h.028a4.312,4.312,0,0,1,4.172-2.485c3.058,0,4.772,1.743,4.772,5.229V558.8a.269.269,0,0,1-.285.285Z" transform="translate(-302.506 -539.658)"/>
    <path id="Path_98" data-name="Path 98" class="cls-2" d="M422.679,555.888a16.4,16.4,0,0,1,0-7.2,5.075,5.075,0,0,1,9.6,0,10.14,10.14,0,0,1,.4,3.371.279.279,0,0,1-.314.286h-9.059c-.115,0-.172.086-.172.2a9.818,9.818,0,0,0,.343,3.058,4.043,4.043,0,0,0,4.172,2.972,4.865,4.865,0,0,0,4.086-1.972.259.259,0,0,1,.4-.057l.171.143a.255.255,0,0,1,.028.4,5.529,5.529,0,0,1-4.686,2.286,4.767,4.767,0,0,1-4.973-3.487m8.973-4.343a.151.151,0,0,0,.171-.171,7.937,7.937,0,0,0-.314-2.372,4.229,4.229,0,0,0-8.058,0,7.934,7.934,0,0,0-.315,2.372.152.152,0,0,0,.172.171Z" transform="translate(-324.432 -539.658)"/>
    <path id="Path_99" data-name="Path 99" class="cls-2" d="M453.474,546.821a1.638,1.638,0,1,1,1.643,1.642A1.6,1.6,0,0,1,453.474,546.821Zm3.02,0a1.382,1.382,0,1,0-1.378,1.4A1.348,1.348,0,0,0,456.494,546.821Zm-1.922.91a.068.068,0,0,1-.077-.076V545.97a.068.068,0,0,1,.077-.077h.672a.517.517,0,0,1,.578.536.481.481,0,0,1-.357.5l.357.715c.034.059,0,.085-.051.085h-.144a.107.107,0,0,1-.085-.059l-.358-.706H454.8c-.017,0-.026.009-.026.017v.673a.071.071,0,0,1-.076.076Zm.986-1.3c0-.179-.093-.289-.323-.289H454.8c-.017,0-.026.008-.026.017v.536c0,.017.009.017.026.017h.435C455.465,546.711,455.558,546.609,455.558,546.43Z" transform="translate(-343.888 -539.614)"/>
  </g>
</svg>
